<svg xmlns="http://www.w3.org/2000/svg" width="20.133" height="22.167" viewBox="803.933 491.917 20.133 22.167"><g data-name="trash"><path d="M823 496.98c-3.33-.33-6.68-.5-10.02-.5-1.98 0-3.96.1-5.94.3l-2.04.2M810.5 495.97l.22-1.31c.16-.95.28-1.66 1.97-1.66h2.62c1.69 0 1.82.75 1.97 1.67l.22 1.3M820.85 500.14l-.65 10.07c-.11 1.57-.2 2.79-2.99 2.79h-6.42c-2.79 0-2.88-1.22-2.99-2.79l-.65-10.07M812.33 507.5h3.33M811.5 503.5h5" stroke-linejoin="round" stroke-linecap="round" stroke-width="1.5" stroke="#828282" fill="transparent" data-name="Vector"/></g></svg>