<svg xmlns="http://www.w3.org/2000/svg" width="25.117" height="31.8" viewBox="289.4 485.983 25.117 31.8"><g data-name="Mask Group 1375" transform="translate(286 486)" clip-path="url(&quot;#a&quot;)"><g data-name="Group 18841"><g data-name="Group 18688"><g data-name="Group 18684"><path d="M4.272 25.149a1.9 1.9 0 1 1 .071.07z" fill="#0d988c" fill-rule="evenodd" data-name="Ellipse 34"/><path d="M5.686 26.138a2.264 2.264 0 0 1-2.262-2.262 2.264 2.264 0 0 1 2.262-2.262 2.264 2.264 0 0 1 2.262 2.262 2.265 2.265 0 0 1-2.262 2.262Zm0-3.798c-.848 0-1.537.689-1.537 1.536a1.538 1.538 0 0 0 3.074 0c0-.847-.69-1.536-1.537-1.536Z" fill="#1a1818" fill-rule="evenodd" data-name="Path 34845"/></g><g data-name="Group 18685"><path d="M19.625.363h-9.241a4.567 4.567 0 0 0-4.567 4.566v21.91a4.567 4.567 0 0 0 4.567 4.567h13.185a4.566 4.566 0 0 0 4.566-4.567V8.873l-8.51-8.51Z" fill="#fff" fill-rule="evenodd" data-name="Path 34846"/><path d="M23.568 31.769H10.384a4.936 4.936 0 0 1-4.93-4.93V4.93A4.936 4.936 0 0 1 10.384 0h9.241c.097 0 .19.038.258.106l8.509 8.51c.07.068.107.16.107.256V26.84a4.936 4.936 0 0 1-4.93 4.93ZM10.384.725A4.21 4.21 0 0 0 6.179 4.93v21.91a4.21 4.21 0 0 0 4.205 4.203h13.184a4.21 4.21 0 0 0 4.205-4.204V9.023L19.476.725h-9.092Z" fill="#1a1818" fill-rule="evenodd" data-name="Path 34847"/></g><g data-name="Group 18686"><path d="m19.626.363 8.51 8.51H21.44a1.815 1.815 0 0 1-1.814-1.816V.363Z" fill="#d3d5d6" fill-rule="evenodd" data-name="Path 34848"/><path d="M28.138 9.235H21.44a2.18 2.18 0 0 1-2.178-2.177V.363a.363.363 0 0 1 .62-.257L28.376 8.6a.362.362 0 0 1-.238.635Zm-8.15-7.997v5.82c0 .8.652 1.452 1.453 1.452h5.82l-7.272-7.272Z" fill="#1a1818" fill-rule="evenodd" data-name="Path 34849"/></g><g data-name="Group 18687"><path d="M5.858 12.923a2.043 2.043 0 0 0-2.042 2.043v8.554h.037a2.042 2.042 0 0 1 2.005-1.654H26.43v-8.943H5.86Z" fill="#0d988c" fill-rule="evenodd" data-name="Path 34850"/><path d="M3.853 23.883h-.037a.363.363 0 0 1-.363-.363v-8.554a2.408 2.408 0 0 1 2.405-2.405H26.43c.2 0 .364.162.364.362v8.944c0 .2-.163.362-.364.362H5.86c-.805 0-1.497.572-1.65 1.36a.361.361 0 0 1-.356.294Zm2.005-10.597c-.925 0-1.68.754-1.68 1.68v7.222a2.407 2.407 0 0 1 1.68-.684h20.21v-8.218H5.857Z" fill="#1a1818" fill-rule="evenodd" data-name="Path 34851"/></g></g><g data-name="Group 18689"><path d="M5.945 15.235c0-.151.123-.275.267-.275h1.402c1.51 0 2.555 1.037 2.555 2.39v.014c0 1.353-1.045 2.404-2.555 2.404H6.212a.274.274 0 0 1-.267-.275v-4.258Zm1.669 4.031c1.216 0 1.991-.824 1.991-1.889v-.013c0-1.065-.775-1.903-1.991-1.903H6.488v3.805h1.126Z" fill="#fff" fill-rule="evenodd" data-name="Path 34852"/><path d="M11.103 17.378v-.014c0-1.325.996-2.486 2.46-2.486 1.463 0 2.444 1.147 2.444 2.472v.014c0 1.326-.995 2.486-2.459 2.486-1.462 0-2.445-1.146-2.445-2.472Zm4.341 0v-.014c0-1.092-.797-1.985-1.896-1.985-1.098 0-1.882.88-1.882 1.971v.014c0 1.092.797 1.985 1.897 1.985 1.099 0 1.881-.879 1.881-1.971Z" fill="#fff" fill-rule="evenodd" data-name="Path 34853"/><path d="M16.942 17.378v-.014c0-1.36 1.016-2.486 2.43-2.486.777 0 1.272.254 1.718.625.055.048.11.124.11.22 0 .144-.13.268-.275.268a.328.328 0 0 1-.179-.062c-.37-.33-.789-.55-1.38-.55-1.064 0-1.861.865-1.861 1.971v.014c0 1.113.803 1.985 1.86 1.985.599 0 1.017-.206 1.43-.584a.25.25 0 0 1 .172-.075.27.27 0 0 1 .26.26.256.256 0 0 1-.09.193c-.473.432-.995.707-1.785.707-1.387 0-2.41-1.092-2.41-2.472Z" fill="#fff" fill-rule="evenodd" data-name="Path 34854"/><path d="m22.003 19.356 1.606-2.04-1.524-1.923c-.048-.062-.09-.123-.09-.206 0-.137.117-.26.268-.26.11 0 .172.054.24.136l1.45 1.882 1.428-1.861c.077-.09.144-.158.261-.158.13 0 .247.11.247.254a.298.298 0 0 1-.075.193l-1.532 1.937 1.587 2.025c.054.062.09.124.09.2a.269.269 0 0 1-.268.268c-.11 0-.173-.056-.241-.138l-1.519-1.971-1.496 1.95c-.076.09-.144.159-.268.159-.122 0-.24-.11-.24-.255 0-.068.028-.137.076-.192Z" fill="#fff" fill-rule="evenodd" data-name="Path 34855"/></g></g></g><defs><clipPath id="a"><path d="M0 0h32v32H0V0z" data-name="Rectangle 7326"/></clipPath></defs></svg>